<svg xmlns="http://www.w3.org/2000/svg" width="295" height="47" viewBox="0 0 295 47">
    <defs>
        <linearGradient id="a" x1="50%" x2="50%" y1="0%" y2="100%">
            <stop offset="0%" stop-color="#B0EA4F"/>
            <stop offset="100%" stop-color="#469623"/>
        </linearGradient>
    </defs>
    <path fill="url(#a)" fill-rule="evenodd" d="M95.28 1595.312v6.192H80.736v14.544h-6.192v-14.544H60v-6.192h14.544v-14.544h6.192v14.544H95.28zm18.288-13.968a11.53 11.53 0 0 0-4.356.828c-1.368.552-2.82 1.452-4.356 2.7l-3.96-6.048a21.996 21.996 0 0 1 6.084-3.564c2.184-.84 4.764-1.26 7.74-1.26 2.304 0 4.356.336 6.156 1.008 1.8.672 3.324 1.608 4.572 2.808a12.002 12.002 0 0 1 2.844 4.212c.648 1.608.972 3.372.972 5.292 0 3.168-1.128 6.492-3.384 9.972-2.256 3.48-5.496 7.212-9.72 11.196l-4.536 4.248h18.144v7.416h-27.792l-1.728-6.336 6.48-6.48c2.4-2.4 4.416-4.524 6.048-6.372 1.632-1.848 2.952-3.516 3.96-5.004 1.008-1.488 1.728-2.856 2.16-4.104.432-1.248.648-2.496.648-3.744 0-2.208-.564-3.888-1.692-5.04-1.128-1.152-2.556-1.728-4.284-1.728zm50.472-6.696v7.416l-15.84.144-1.008 9.072c.672-.096 1.212-.144 1.62-.144h1.62c2.016 0 3.96.276 5.832.828 1.872.552 3.528 1.392 4.968 2.52 1.44 1.128 2.592 2.58 3.456 4.356.864 1.776 1.296 3.888 1.296 6.336 0 2.16-.372 4.188-1.116 6.084a13.809 13.809 0 0 1-3.384 5.004c-1.512 1.44-3.444 2.58-5.796 3.42-2.352.84-5.112 1.26-8.28 1.26-2.304 0-4.416-.24-6.336-.72s-3.576-1.056-4.968-1.728l2.016-6.984a26.892 26.892 0 0 0 3.888 1.44c1.344.384 2.856.576 4.536.576 3.12 0 5.496-.72 7.128-2.16 1.632-1.44 2.448-3.312 2.448-5.616 0-2.64-.924-4.608-2.772-5.904-1.848-1.296-4.212-1.944-7.092-1.944-1.248 0-2.52.084-3.816.252-1.296.168-2.52.372-3.672.612l2.232-23.976 23.04-.144zm27.576-.648c2.688 0 5.172.444 7.452 1.332 2.28.888 4.248 2.28 5.904 4.176 1.656 1.896 2.952 4.32 3.888 7.272.936 2.952 1.404 6.492 1.404 10.62 0 4.08-.504 7.596-1.512 10.548s-2.376 5.388-4.104 7.308c-1.728 1.92-3.72 3.348-5.976 4.284a18.417 18.417 0 0 1-7.128 1.404c-2.688 0-5.172-.444-7.452-1.332-2.28-.888-4.26-2.292-5.94-4.212-1.68-1.92-2.988-4.368-3.924-7.344-.936-2.976-1.404-6.528-1.404-10.656 0-3.936.516-7.38 1.548-10.332 1.032-2.952 2.412-5.388 4.14-7.308 1.728-1.92 3.732-3.36 6.012-4.32a18.1 18.1 0 0 1 7.092-1.44zm-8.928 23.4c0 3.216.24 5.88.72 7.992s1.14 3.792 1.98 5.04c.84 1.248 1.8 2.124 2.88 2.628a7.833 7.833 0 0 0 3.348.756 7.537 7.537 0 0 0 3.348-.792c1.08-.528 2.016-1.416 2.808-2.664.792-1.248 1.428-2.928 1.908-5.04s.72-4.752.72-7.92c0-3.216-.24-5.868-.72-7.956s-1.116-3.744-1.908-4.968c-.792-1.224-1.728-2.088-2.808-2.592a7.833 7.833 0 0 0-3.348-.756 7.833 7.833 0 0 0-3.348.756c-1.08.504-2.04 1.38-2.88 2.628-.84 1.248-1.5 2.916-1.98 5.004-.48 2.088-.72 4.716-.72 7.884zm33.48 17.64c0-.816.156-1.584.468-2.304a5.98 5.98 0 0 1 1.26-1.872 5.687 5.687 0 0 1 4.032-1.656c1.536 0 2.868.552 3.996 1.656 1.128 1.104 1.692 2.496 1.692 4.176 0 1.824-.564 3.264-1.692 4.32-1.128 1.056-2.46 1.584-3.996 1.584s-2.88-.528-4.032-1.584c-1.152-1.056-1.728-2.496-1.728-4.32zm34.704-41.04c2.688 0 5.172.444 7.452 1.332 2.28.888 4.248 2.28 5.904 4.176 1.656 1.896 2.952 4.32 3.888 7.272.936 2.952 1.404 6.492 1.404 10.62 0 4.08-.504 7.596-1.512 10.548s-2.376 5.388-4.104 7.308c-1.728 1.92-3.72 3.348-5.976 4.284a18.417 18.417 0 0 1-7.128 1.404c-2.688 0-5.172-.444-7.452-1.332-2.28-.888-4.26-2.292-5.94-4.212-1.68-1.92-2.988-4.368-3.924-7.344-.936-2.976-1.404-6.528-1.404-10.656 0-3.936.516-7.38 1.548-10.332 1.032-2.952 2.412-5.388 4.14-7.308 1.728-1.92 3.732-3.36 6.012-4.32a18.1 18.1 0 0 1 7.092-1.44zm-8.928 23.4c0 3.216.24 5.88.72 7.992s1.14 3.792 1.98 5.04c.84 1.248 1.8 2.124 2.88 2.628a7.833 7.833 0 0 0 3.348.756 7.537 7.537 0 0 0 3.348-.792c1.08-.528 2.016-1.416 2.808-2.664.792-1.248 1.428-2.928 1.908-5.04s.72-4.752.72-7.92c0-3.216-.24-5.868-.72-7.956s-1.116-3.744-1.908-4.968c-.792-1.224-1.728-2.088-2.808-2.592a7.833 7.833 0 0 0-3.348-.756 7.833 7.833 0 0 0-3.348.756c-1.08.504-2.04 1.38-2.88 2.628-.84 1.248-1.5 2.916-1.98 5.004-.48 2.088-.72 4.716-.72 7.884zm51.408-23.4c2.688 0 5.172.444 7.452 1.332 2.28.888 4.248 2.28 5.904 4.176 1.656 1.896 2.952 4.32 3.888 7.272.936 2.952 1.404 6.492 1.404 10.62 0 4.08-.504 7.596-1.512 10.548s-2.376 5.388-4.104 7.308c-1.728 1.92-3.72 3.348-5.976 4.284a18.417 18.417 0 0 1-7.128 1.404c-2.688 0-5.172-.444-7.452-1.332-2.28-.888-4.26-2.292-5.94-4.212-1.68-1.92-2.988-4.368-3.924-7.344-.936-2.976-1.404-6.528-1.404-10.656 0-3.936.516-7.38 1.548-10.332 1.032-2.952 2.412-5.388 4.14-7.308 1.728-1.92 3.732-3.36 6.012-4.32a18.1 18.1 0 0 1 7.092-1.44zm-8.928 23.4c0 3.216.24 5.88.72 7.992s1.14 3.792 1.98 5.04c.84 1.248 1.8 2.124 2.88 2.628a7.833 7.833 0 0 0 3.348.756 7.537 7.537 0 0 0 3.348-.792c1.08-.528 2.016-1.416 2.808-2.664.792-1.248 1.428-2.928 1.908-5.04s.72-4.752.72-7.92c0-3.216-.24-5.868-.72-7.956s-1.116-3.744-1.908-4.968c-.792-1.224-1.728-2.088-2.808-2.592a7.833 7.833 0 0 0-3.348-.756 7.833 7.833 0 0 0-3.348.756c-1.08.504-2.04 1.38-2.88 2.628-.84 1.248-1.5 2.916-1.98 5.004-.48 2.088-.72 4.716-.72 7.884zm51.408-23.4c2.688 0 5.172.444 7.452 1.332 2.28.888 4.248 2.28 5.904 4.176 1.656 1.896 2.952 4.32 3.888 7.272.936 2.952 1.404 6.492 1.404 10.62 0 4.08-.504 7.596-1.512 10.548s-2.376 5.388-4.104 7.308c-1.728 1.92-3.72 3.348-5.976 4.284a18.417 18.417 0 0 1-7.128 1.404c-2.688 0-5.172-.444-7.452-1.332-2.28-.888-4.26-2.292-5.94-4.212-1.68-1.92-2.988-4.368-3.924-7.344-.936-2.976-1.404-6.528-1.404-10.656 0-3.936.516-7.38 1.548-10.332 1.032-2.952 2.412-5.388 4.14-7.308 1.728-1.92 3.732-3.36 6.012-4.32a18.1 18.1 0 0 1 7.092-1.44zm-8.928 23.4c0 3.216.24 5.88.72 7.992s1.14 3.792 1.98 5.04c.84 1.248 1.8 2.124 2.88 2.628a7.833 7.833 0 0 0 3.348.756 7.537 7.537 0 0 0 3.348-.792c1.08-.528 2.016-1.416 2.808-2.664.792-1.248 1.428-2.928 1.908-5.04s.72-4.752.72-7.92c0-3.216-.24-5.868-.72-7.956s-1.116-3.744-1.908-4.968c-.792-1.224-1.728-2.088-2.808-2.592a7.833 7.833 0 0 0-3.348-.756 7.833 7.833 0 0 0-3.348.756c-1.08.504-2.04 1.38-2.88 2.628-.84 1.248-1.5 2.916-1.98 5.004-.48 2.088-.72 4.716-.72 7.884z" transform="translate(-60 -1574)"/>
</svg>
