<svg xmlns="http://www.w3.org/2000/svg" width="74" height="53" viewBox="0 0 74 53">
    <defs>
        <linearGradient id="a" x1="50%" x2="50%" y1="0%" y2="100%">
            <stop offset="0%" stop-color="#DF3684"/>
            <stop offset="100%" stop-color="#DA2664"/>
        </linearGradient>
    </defs>
    <path fill="url(#a)" fill-rule="evenodd" d="M83.88 902.96c-1.653 0-3.24.307-4.76.92-1.52.613-3.107 1.613-4.76 3l-4.8-7.36c1.973-1.6 4.213-2.92 6.72-3.96 2.507-1.04 5.627-1.56 9.36-1.56 2.453 0 4.68.373 6.68 1.12 2 .747 3.693 1.773 5.08 3.08 1.387 1.307 2.467 2.867 3.24 4.68.773 1.813 1.16 3.787 1.16 5.92 0 3.36-1.16 6.933-3.48 10.72-2.32 3.787-5.747 7.787-10.28 12l-5.12 4.8h19.28v9.04H71.08L69 937.6l7.36-7.36c2.613-2.613 4.773-4.893 6.48-6.84 1.707-1.947 3.08-3.707 4.12-5.28 1.04-1.573 1.773-3.027 2.2-4.36.427-1.333.64-2.64.64-3.92 0-2.4-.587-4.147-1.76-5.24s-2.56-1.64-4.16-1.64zm56.88-8.16v9.04l-17.28.16-1.04 9.04c.747-.107 1.32-.16 1.72-.16h1.56c2.347 0 4.573.32 6.68.96 2.107.64 3.947 1.6 5.52 2.88 1.573 1.28 2.813 2.907 3.72 4.88.907 1.973 1.36 4.32 1.36 7.04 0 2.4-.413 4.667-1.24 6.8s-2.093 4-3.8 5.6c-1.707 1.6-3.867 2.867-6.48 3.8-2.613.933-5.733 1.4-9.36 1.4-2.827 0-5.32-.28-7.48-.84-2.16-.56-4.013-1.213-5.56-1.96l2.4-8.48a29.88 29.88 0 0 0 4.32 1.6c1.493.427 3.173.64 5.04.64 3.253 0 5.733-.747 7.44-2.24 1.707-1.493 2.56-3.36 2.56-5.6 0-2.72-1-4.76-3-6.12-2-1.36-4.52-2.04-7.56-2.04-1.387 0-2.773.093-4.16.28a49.68 49.68 0 0 0-3.92.68l2.48-27.2 26.08-.16z" transform="translate(-69 -894)"/>
</svg>
