<svg xmlns="http://www.w3.org/2000/svg" width="160" height="47" viewBox="0 0 160 47">
    <defs>
        <linearGradient id="a" x1="50%" x2="50%" y1="0%" y2="100%">
            <stop offset="0%" stop-color="#A1B9EC"/>
            <stop offset="100%" stop-color="#3662AA"/>
        </linearGradient>
    </defs>
    <path fill="url(#a)" fill-rule="evenodd" d="M99.28 1711.312v6.192H84.736v14.544h-6.192v-14.544H64v-6.192h14.544v-14.544h6.192v14.544H99.28zm22.824-20.52h11.088v27.504h6.624v7.416h-6.624v10.44h-9.144v-10.44h-21.024v-6.12l19.08-28.8zm-1.944 16.488l-7.344 11.016h11.232v-10.224l.432-8.712h-.144l-4.176 7.92zm42.552-17.28c2.688 0 5.172.444 7.452 1.332 2.28.888 4.248 2.28 5.904 4.176 1.656 1.896 2.952 4.32 3.888 7.272.936 2.952 1.404 6.492 1.404 10.62 0 4.08-.504 7.596-1.512 10.548s-2.376 5.388-4.104 7.308c-1.728 1.92-3.72 3.348-5.976 4.284a18.417 18.417 0 0 1-7.128 1.404c-2.688 0-5.172-.444-7.452-1.332-2.28-.888-4.26-2.292-5.94-4.212-1.68-1.92-2.988-4.368-3.924-7.344-.936-2.976-1.404-6.528-1.404-10.656 0-3.936.516-7.38 1.548-10.332 1.032-2.952 2.412-5.388 4.14-7.308 1.728-1.92 3.732-3.36 6.012-4.32a18.1 18.1 0 0 1 7.092-1.44zm-8.928 23.4c0 3.216.24 5.88.72 7.992s1.14 3.792 1.98 5.04c.84 1.248 1.8 2.124 2.88 2.628a7.833 7.833 0 0 0 3.348.756 7.537 7.537 0 0 0 3.348-.792c1.08-.528 2.016-1.416 2.808-2.664.792-1.248 1.428-2.928 1.908-5.04s.72-4.752.72-7.92c0-3.216-.24-5.868-.72-7.956s-1.116-3.744-1.908-4.968c-.792-1.224-1.728-2.088-2.808-2.592a7.833 7.833 0 0 0-3.348-.756 7.833 7.833 0 0 0-3.348.756c-1.08.504-2.04 1.38-2.88 2.628-.84 1.248-1.5 2.916-1.98 5.004-.48 2.088-.72 4.716-.72 7.884zm51.408-23.4c2.688 0 5.172.444 7.452 1.332 2.28.888 4.248 2.28 5.904 4.176 1.656 1.896 2.952 4.32 3.888 7.272.936 2.952 1.404 6.492 1.404 10.62 0 4.08-.504 7.596-1.512 10.548s-2.376 5.388-4.104 7.308c-1.728 1.92-3.72 3.348-5.976 4.284a18.417 18.417 0 0 1-7.128 1.404c-2.688 0-5.172-.444-7.452-1.332-2.28-.888-4.26-2.292-5.94-4.212-1.68-1.92-2.988-4.368-3.924-7.344-.936-2.976-1.404-6.528-1.404-10.656 0-3.936.516-7.38 1.548-10.332 1.032-2.952 2.412-5.388 4.14-7.308 1.728-1.92 3.732-3.36 6.012-4.32a18.1 18.1 0 0 1 7.092-1.44zm-8.928 23.4c0 3.216.24 5.88.72 7.992s1.14 3.792 1.98 5.04c.84 1.248 1.8 2.124 2.88 2.628a7.833 7.833 0 0 0 3.348.756 7.537 7.537 0 0 0 3.348-.792c1.08-.528 2.016-1.416 2.808-2.664.792-1.248 1.428-2.928 1.908-5.04s.72-4.752.72-7.92c0-3.216-.24-5.868-.72-7.956s-1.116-3.744-1.908-4.968c-.792-1.224-1.728-2.088-2.808-2.592a7.833 7.833 0 0 0-3.348-.756 7.833 7.833 0 0 0-3.348.756c-1.08.504-2.04 1.38-2.88 2.628-.84 1.248-1.5 2.916-1.98 5.004-.48 2.088-.72 4.716-.72 7.884z" transform="translate(-64 -1690)"/>
</svg>
